<?xml version="1.0" standalone="no"?>
<!DOCTYPE svg PUBLIC "-//W3C//DTD SVG 20010904//EN"
 "http://www.w3.org/TR/2001/REC-SVG-20010904/DTD/svg10.dtd">
<svg version="1.0" xmlns="http://www.w3.org/2000/svg"
 width="200.000000pt" height="200.000000pt" viewBox="0 0 200.000000 200.000000"
 preserveAspectRatio="xMidYMid meet">
<metadata>
Created by potrace 1.16, written by Peter Selinger 2001-2019
</metadata>
<g transform="translate(0.000000,200.000000) scale(0.100000,-0.100000)"
fill="#000000" stroke="none">
<path d="M0 1000 l0 -1000 1000 0 1000 0 0 1000 0 1000 -1000 0 -1000 0 0
-1000z m1776 695 c11 -29 -190 -942 -213 -967 -25 -28 -69 -34 -208 -28 l-130
5 78 13 c43 8 77 15 75 17 -2 3 -53 1 -113 -4 -61 -4 -112 -6 -114 -4 -3 2 1
26 8 54 7 27 11 52 8 55 -3 3 -64 -27 -135 -66 -163 -89 -172 -89 -223 -2
l-37 63 -52 -63 c-82 -99 -301 -336 -379 -411 -52 -51 -76 -68 -93 -65 -15 2
-24 11 -26 25 -2 12 27 124 63 250 206 705 249 862 249 903 l1 45 210 3 210 2
65 -130 c35 -71 68 -130 72 -130 4 0 85 58 180 128 152 113 277 202 413 294
44 31 83 36 91 13z m-766 -35 c467 0 582 -3 572 -12 -10 -10 -150 -14 -620
-15 -334 -2 -617 -5 -629 -8 l-23 -5 0 -428 c0 -387 -2 -434 -19 -500 -11 -41
-22 -76 -25 -80 -3 -3 -6 235 -6 528 l0 533 83 -6 c45 -4 345 -7 667 -7z m754
-913 l7 -318 -603 2 c-332 1 -625 4 -653 7 -45 4 -47 6 -30 18 16 12 124 14
621 14 l602 0 6 93 c3 50 8 211 11 356 3 145 9 291 13 325 6 58 7 54 13 -59 4
-66 9 -263 13 -438z"/>
<path d="M1702 1508 c-99 -364 -189 -738 -177 -738 16 0 213 782 203 810 -2 6
-13 -27 -26 -72z"/>
<path d="M1434 1399 c-154 -123 -382 -301 -401 -313 -9 -5 -40 49 -102 173
-50 99 -97 183 -105 188 -8 4 -58 6 -112 3 l-98 -5 -13 -45 c-104 -351 -263
-913 -260 -917 3 -2 92 127 198 287 107 159 198 288 204 287 5 -2 41 -60 80
-130 38 -69 76 -129 84 -132 7 -3 96 43 198 101 101 59 186 104 188 102 3 -3
-11 -51 -30 -107 -19 -56 -35 -104 -35 -106 0 -3 7 -5 16 -5 8 0 23 19 34 43
10 23 82 186 159 361 78 176 139 321 137 323 -1 2 -66 -47 -142 -108z"/>
</g>
</svg>
